<svg xmlns="http://www.w3.org/2000/svg" viewBox="0 0 512 512" width="512" height="512">
  <defs>
    <filter id="emeraldGlow" x="-20%" y="-20%" width="140%" height="140%">
      <feGaussianBlur stdDeviation="8" result="blur" />
      <feMerge>
        <feMergeNode in="blur" />
        <feMergeNode in="SourceGraphic" />
      </feMerge>
    </filter>
    <filter id="indigoGlow" x="-20%" y="-20%" width="140%" height="140%">
      <feGaussianBlur stdDeviation="6" result="blur" />
      <feMerge>
        <feMergeNode in="blur" />
        <feMergeNode in="SourceGraphic" />
      </feMerge>
    </filter>
  </defs>

  <rect width="512" height="512" rx="110" fill="#0f172a" />
  
  <g opacity="0.05" stroke="#ffffff" stroke-width="2">
    <line x1="64" y1="0" x2="64" y2="512" />
    <line x1="128" y1="0" x2="128" y2="512" />
    <line x1="192" y1="0" x2="192" y2="512" />
    <line x1="256" y1="0" x2="256" y2="512" />
    <line x1="320" y1="0" x2="320" y2="512" />
    <line x1="384" y1="0" x2="384" y2="512" />
    <line x1="448" y1="0" x2="448" y2="512" />
    <line x1="0" y1="64" x2="512" y2="64" />
    <line x1="0" y1="128" x2="512" y2="128" />
    <line x1="0" y1="192" x2="512" y2="192" />
    <line x1="0" y1="256" x2="512" y2="256" />
    <line x1="0" y1="320" x2="512" y2="320" />
    <line x1="0" y1="384" x2="512" y2="384" />
    <line x1="0" y1="448" x2="512" y2="448" />
  </g>

  <path d="M 120 340 A 150 150 0 1 1 392 340" fill="none" stroke="#4f46e5" stroke-width="8" stroke-linecap="round" opacity="0.4" />
  <path d="M 120 340 A 150 150 0 1 1 392 340" fill="none" stroke="#10b981" stroke-width="10" stroke-linecap="round" stroke-dasharray="1 18" filter="url(#emeraldGlow)" />
  
  <g transform="translate(196, 150)" stroke="#10b981" stroke-width="12" fill="none" stroke-linecap="round" stroke-linejoin="round" filter="url(#emeraldGlow)">
    <path d="M 20 180 L 20 30 C 20 15, 100 15, 100 30 L 100 180" />
    <rect x="38" y="45" width="44" height="30" rx="4" stroke-width="6" stroke="#4f46e5" filter="url(#indigoGlow)" />
    <line x1="48" y1="60" x2="72" y2="60" stroke-width="4" stroke="#4f46e5" />
    <path d="M 100 80 C 130 80, 135 150, 115 170 C 105 180, 105 130, 125 100" stroke-width="8" />
    <path d="M 125 100 L 135 90 L 130 85 M 135 90 L 145 92" stroke-width="8" />
  </g>

  <polygon points="256,290 248,310 256,190 264,310" fill="#4f46e5" filter="url(#indigoGlow)" />
  <circle cx="256" cy="290" r="12" fill="#10b981" filter="url(#emeraldGlow)" />

  <path d="M 230 395 L 255 370 L 240 370 L 270 340 L 245 365 L 260 365 Z" fill="#10b981" filter="url(#emeraldGlow)" />

  <text x="256" y="450" font-family="'Sarabun', sans-serif" font-size="24" font-weight="700" fill="#a7f3d0" letter-spacing="4" text-anchor="middle" opacity="0.8">FUEL CALC</text>
</svg>
